<?xml version="1.0" encoding="utf-8"?>
<!-- Svg Vector Icons : http://www.onlinewebfonts.com/icon -->
<!DOCTYPE svg PUBLIC "-//W3C//DTD SVG 1.1//EN" "http://www.w3.org/Graphics/SVG/1.1/DTD/svg11.dtd">
<svg version="1.1" xmlns="http://www.w3.org/2000/svg" xmlns:xlink="http://www.w3.org/1999/xlink" x="0px" y="0px" viewBox="0 0 1000 1000" enable-background="new 0 0 1000 1000" xml:space="preserve">
<metadata> Svg Vector Icons : http://www.onlinewebfonts.com/icon </metadata>
<g><path fill="#007678" d="M990,869.8c0,0-10.4-79.6-119.3-156.6c-58.7-41.5-162.8-93.5-291.8-117.2c49.7-37.1,75.2-96.4,94-157.4c21.6-69.8,29-166.7,9.4-236.6C654.2,101.6,583.1,72.7,500.1,71.7c-0.2,0-0.7-0.2-0.9-0.2c-0.7,0-1.4,0.1-2.1,0.1c-0.6,0-1.3-0.1-2-0.1c-0.2,0-0.4,0.2-0.7,0.2c-83,1-153.6,29.9-181.7,130.4c-19.5,69.9-11,166.8,10.5,236.6c18.9,60.9,46.6,120.3,96.3,157.3c-129,23.7-234.7,75.8-293.3,117.2C17.4,790.1,10,869.8,10,869.8v58.6h486.9H990V869.8z"/></g>
</svg>