<?xml version="1.0" encoding="iso-8859-1"?>
<!-- Generator: Adobe Illustrator 16.0.0, SVG Export Plug-In . SVG Version: 6.00 Build 0)  -->
<!DOCTYPE svg PUBLIC "-//W3C//DTD SVG 1.1//EN" "http://www.w3.org/Graphics/SVG/1.1/DTD/svg11.dtd">
<svg xmlns="http://www.w3.org/2000/svg" xmlns:xlink="http://www.w3.org/1999/xlink" version="1.1" id="Capa_1" x="0px" y="0px" width="512px" height="512px" viewBox="0 0 64.668 64.668" style="enable-background:new 0 0 64.668 64.668;" xml:space="preserve">
<g>
	<path d="M47.493,30.297c0-0.385-0.137-0.668-0.411-0.847c-0.269-0.18-0.844-0.367-1.724-0.563   c-1.615-0.359-2.696-0.751-3.244-1.172c-0.543-0.417-0.816-1.067-0.816-1.95c0-0.99,0.36-1.776,1.072-2.357   c0.721-0.581,1.692-0.871,2.91-0.871c1.139,0,2.076,0.301,2.781,0.901c0.728,0.603,1.119,1.413,1.197,2.436h-2.078   c-0.039-0.486-0.244-0.872-0.632-1.153c-0.393-0.287-0.895-0.43-1.51-0.43c-0.548,0-0.968,0.119-1.273,0.359   c-0.306,0.236-0.456,0.57-0.456,0.994c0,0.307,0.155,0.543,0.479,0.708c0.314,0.167,0.98,0.364,1.998,0.591   c1.487,0.334,2.479,0.717,2.975,1.154c0.506,0.43,0.745,1.121,0.745,2.077c0,0.957-0.374,1.717-1.124,2.279   c-0.753,0.563-1.777,0.844-3.063,0.844c-1.294,0-2.297-0.297-3.029-0.896c-0.728-0.595-1.115-1.445-1.163-2.545h2.053   c0.027,0.542,0.224,0.958,0.589,1.25c0.369,0.292,0.885,0.439,1.551,0.439c0.68,0,1.216-0.109,1.595-0.332   C47.302,30.988,47.493,30.685,47.493,30.297z M31.244,33.017h1.019l1.597-8.031l1.643,8.031h1.02h1.017l2.838-10.204h-1.081h-1.074   l-1.699,7.404h-0.005l-1.47-7.404h-1.141h-1.128l-1.46,7.468l-1.703-7.468h-1.112h-1.112l2.846,10.204H31.244z M26.513,32.107   v-0.901H20.9v-2.661h4.995v-0.878v-0.876H20.9v-2.165h5.382v-0.909v-0.902H18.77v10.203h7.743V32.107L26.513,32.107z M8.396,22.815   v10.203h1.003h0.994v-7.355l4.21,7.355h1.06h1.059V22.815h-1h-0.993v7.162l-4.097-7.162H9.513H8.396z M63.618,0v41.589h-6.812   v6.631h-14.45l-9.817,9.817v-0.171l-6.812,6.802V48.22H1.05V6.633h6.812V0H63.618z M54.069,9.373H10.607H9.23H7.862H3.8v36.104   h24.673v12.568l4.062-4.062l1.369-1.368l1.376-1.369l5.767-5.769h0.173h1.931h1.943h8.974v-3.892v-1.371v-1.373V9.373H54.069z    M60.869,2.742H10.604v3.892h46.201v32.211h4.06L60.869,2.742L60.869,2.742z" fill="#007678"/>
</g>
<g>
</g>
<g>
</g>
<g>
</g>
<g>
</g>
<g>
</g>
<g>
</g>
<g>
</g>
<g>
</g>
<g>
</g>
<g>
</g>
<g>
</g>
<g>
</g>
<g>
</g>
<g>
</g>
<g>
</g>
</svg>
