<?xml version="1.0" encoding="iso-8859-1"?>
<!-- Generator: Adobe Illustrator 19.0.0, SVG Export Plug-In . SVG Version: 6.00 Build 0)  -->
<svg version="1.1" id="Layer_1" xmlns="http://www.w3.org/2000/svg" xmlns:xlink="http://www.w3.org/1999/xlink" x="0px" y="0px"
	 viewBox="0 0 1140 360" style="enable-background:new 0 0 389.43 389.43;" xml:space="preserve">
<circle style="fill:#F16051;" cx="194.715" cy="194.715" r="194.715"/>
<path style="fill:#FFFFFF;" d="M242.295,386.327v-43.249h24.76c12.348,0,22.238-9.891,22.238-22.238v-48.808h34.586l-30.255-57.535
	c0-65.552-55.014-117.463-121.147-113.713c-58.117,3.685-105.115,51.911-106.343,110.028c-1.228,37.689,16.097,71.693,43.248,92.703
	v82.812"/>
<path style="fill:#193651;" d="M248.501,386.327h-12.347v-49.455h30.901c8.663,0,16.097-7.434,16.097-16.097v-54.949h30.319
	l-25.988-49.455v-1.228c0-30.319-11.766-58.117-34.004-78.481c-21.657-20.428-50.683-30.901-80.356-29.026
	c-55.014,3.103-98.909,49.455-100.784,104.469c-1.228,34.586,14.222,66.78,41.438,87.79l2.457,1.875v84.687h-12.347V307.2
	c-29.026-23.467-44.477-58.699-43.248-95.806c1.875-61.22,51.329-112.485,112.485-116.234c33.358-1.875,65.551,9.244,89.665,32.129
	c23.467,22.238,37.107,53.786,37.689,85.915l33.358,64.905h-38.335v42.667c0,15.451-12.994,28.444-28.444,28.444h-18.554
	L248.501,386.327L248.501,386.327z"/>
<path style="fill:#D3D7DA;" d="M136.016,280.048c0,0-0.646-17.907-18.554-30.319s-14.804-13.576-19.135-23.467
	c0,0-12.994-18.554-3.103-37.107c0,0-3.103-24.76,17.907-34.004c0,0,11.766-24.76,34.004-15.451c0,0,16.679-20.428,35.232-3.685
	c0,0,24.76-14.804,36.461,8.663c0,0,27.216-2.457,29.026,22.238c0,0,30.319,15.451,9.891,46.352c0,0-9.891,14.222-36.461,4.331
	c0,0-15.451,9.891-32.776,0c0,0-24.113,9.891-25.988,30.901s-0.646,31.547-0.646,31.547H136.016z"/>
<polygon style="fill:#FFFFFF;" points="190.384,3.103 168.727,48.226 190.384,48.226 190.384,81.002 212.622,38.335 190.384,38.335 
	"/>
<g>
	<rect x="139.701" y="178.036" style="fill:#193651;" width="12.347" height="12.347"/>
	<rect x="171.83" y="178.036" style="fill:#193651;" width="12.347" height="12.347"/>
	<rect x="203.96" y="178.036" style="fill:#193651;" width="12.347" height="12.347"/>
</g>
<g>
</g>
<g>
</g>
<g>
</g>
<g>
</g>
<g>
</g>
<g>
</g>
<g>
</g>
<g>
</g>
<g>
</g>
<g>
</g>
<g>
</g>
<g>
</g>
<g>
</g>
<g>
</g>
<g>
</g>
</svg>
